<svg width="82" height="79" viewBox="0 0 82 79" fill="none" xmlns="http://www.w3.org/2000/svg">
<path d="M41.0065 43.5328C28.7065 43.5328 16.5064 43.5328 4.20642 43.5328C2.10642 43.5328 1.10645 42.4328 1.10645 40.4328C1.10645 39.9328 1.10645 39.3328 1.10645 38.8328C1.70645 28.4328 5.80645 19.6328 13.1064 12.3328C18.8064 6.7328 25.5065 3.1328 33.4065 1.7328C46.3065 -0.567198 57.8064 2.5328 67.6064 11.2328C74.4064 17.3328 78.6064 24.9328 80.2064 33.9328C80.6064 36.0328 80.8064 38.2328 80.8064 40.3328C80.8064 42.3328 79.8064 43.4328 77.8064 43.4328C65.6064 43.5328 53.3065 43.5328 41.0065 43.5328ZM18.9065 24.8328C18.5065 24.8328 18.0065 24.8328 17.4065 24.9328C16.1065 25.2328 15.2064 26.3328 15.2064 27.6328C15.2064 28.9328 16.2064 30.0328 17.6064 30.1328C18.5064 30.2328 19.5065 30.2328 20.4065 30.1328C21.6065 29.9328 22.6064 28.8328 22.7064 27.6328C22.7064 26.3328 21.8064 25.2328 20.6064 24.9328C20.1064 24.8328 19.5065 24.8328 18.9065 24.8328ZM62.7064 23.8328C63.2064 23.8328 63.8064 23.8328 64.3064 23.7328C65.5064 23.4328 66.5065 22.2328 66.4065 21.0328C66.3065 19.6328 65.3065 18.6328 63.9065 18.5328C63.1065 18.5328 62.3065 18.5328 61.5065 18.5328C60.1065 18.5328 59.1065 19.5328 59.0065 20.9328C58.9065 22.2328 59.7065 23.4328 61.0065 23.7328C61.6065 23.8328 62.1064 23.8328 62.7064 23.8328ZM27.7064 19.3328C28.1064 19.3328 28.6065 19.3328 29.0065 19.3328C30.4065 19.2328 31.5065 18.0328 31.4065 16.6328C31.4065 15.2328 30.3065 14.1328 28.9065 14.0328C28.1065 14.0328 27.3065 14.0328 26.5065 14.0328C25.1065 14.1328 24.1065 15.2328 24.0065 16.5328C23.9065 17.7328 24.8064 18.8328 26.1064 19.2328C26.6064 19.4328 27.2064 19.3328 27.7064 19.3328ZM34.7064 35.1328C35.1064 35.1328 35.4064 35.1328 35.8064 35.1328C37.3064 35.1328 38.4065 34.0328 38.5065 32.6328C38.6065 31.2328 37.6064 30.0328 36.1064 29.9328C35.2064 29.8328 34.3065 29.8328 33.5065 29.9328C32.1065 30.0328 31.1064 31.3328 31.1064 32.6328C31.2064 34.1328 32.3064 35.2328 33.8064 35.2328C34.1064 35.1328 34.4064 35.1328 34.7064 35.1328ZM57.9065 33.7328C58.3065 33.7328 58.7065 33.7328 59.0065 33.7328C60.4065 33.7328 61.5065 32.5328 61.5065 31.2328C61.6065 29.8328 60.5064 28.6328 59.1064 28.5328C58.3064 28.4328 57.4064 28.4328 56.6064 28.5328C55.1064 28.6328 54.1064 29.8328 54.1064 31.2328C54.1064 32.6328 55.2064 33.7328 56.7064 33.8328C57.2064 33.7328 57.5065 33.7328 57.9065 33.7328ZM47.3064 11.6328C46.9064 11.6328 46.5064 11.6328 46.1064 11.6328C44.8064 11.7328 43.8064 12.6328 43.6064 13.9328C43.5064 15.3328 44.3064 16.5328 45.6064 16.7328C46.7064 16.9328 47.8065 16.9328 48.9065 16.7328C50.2065 16.5328 51.1065 15.3328 51.0065 13.9328C50.9065 12.5328 49.8065 11.5328 48.5065 11.5328C48.0065 11.6328 47.6064 11.6328 47.3064 11.6328ZM41.0065 26.1328C41.5065 26.1328 42.0065 26.1328 42.4065 26.1328C43.7065 26.0328 44.6064 24.9328 44.7064 23.6328C44.8064 22.4328 43.8064 21.1328 42.6064 20.9328C41.6064 20.7328 40.5065 20.7328 39.5065 20.9328C38.2065 21.1328 37.3064 22.3328 37.3064 23.5328C37.3064 24.9328 38.4064 26.0328 39.7064 26.1328C40.1064 26.2328 40.6065 26.1328 41.0065 26.1328Z" fill="black" stroke="black" stroke-width="2" stroke-miterlimit="10"/>
<path d="M41.0065 77.1328C32.2065 77.1328 23.5064 77.1328 14.7064 77.1328C8.90642 77.1328 4.70642 74.4328 2.20642 69.1328C1.50642 67.5328 1.10645 65.8328 1.10645 64.1328C1.10645 62.4328 1.10645 60.7328 1.10645 59.0328C1.10645 57.4328 2.20642 56.3328 3.70642 56.3328C4.40642 56.3328 5.10649 56.3328 5.90649 56.3328C29.8065 56.3328 53.7064 56.3328 77.6064 56.3328C78.3064 56.3328 79.1064 56.3328 79.7064 56.8328C80.3064 57.2328 80.8064 57.8328 80.8064 58.6328C80.8064 61.2328 81.1064 63.8328 80.6064 66.4328C79.3064 72.8328 74.0065 77.2328 67.4065 77.2328C58.7065 77.1328 49.8065 77.1328 41.0065 77.1328Z" fill="black" stroke="black" stroke-width="2" stroke-miterlimit="10"/>
<path d="M4.00628 45.7328C6.20628 45.8328 8.00623 46.2328 9.70623 47.2328C11.0062 47.9328 12.2062 48.6328 13.8062 48.7328C15.3062 48.8328 16.7063 48.6328 17.9063 47.9328C19.6063 46.9328 21.4063 46.1328 23.4063 45.9328C26.1063 45.6328 28.6063 46.0328 30.9063 47.3328C32.2063 48.0328 33.4063 48.7328 34.9063 48.7328C36.4063 48.8328 37.9062 48.6328 39.2062 47.8328C41.5062 46.4328 43.9063 45.7328 46.6063 45.8328C48.5063 45.9328 50.3063 46.3328 52.0063 47.2328C53.3063 47.9328 54.5063 48.6328 56.1063 48.7328C57.6063 48.8328 59.1063 48.6328 60.4063 47.8328C62.1063 46.8328 63.8062 46.1328 65.8062 45.9328C68.4062 45.6328 70.9062 45.9328 73.2062 47.2328C74.8062 48.1328 76.5063 48.8328 78.4063 48.8328C79.8063 48.8328 80.8062 50.1328 80.7062 51.5328C80.6062 52.9328 79.5063 54.0328 78.0063 54.0328C75.9063 54.0328 74.0063 53.6328 72.1063 52.6328C70.9063 51.9328 69.7062 51.2328 68.3062 51.1328C66.6062 51.0328 65.1063 51.2328 63.6063 52.0328C61.3063 53.4328 58.9062 54.1328 56.2062 54.0328C54.1062 53.9328 52.2063 53.4328 50.4063 52.3328C48.4063 51.1328 46.3063 50.7328 44.0063 51.2328C43.3063 51.4328 42.7062 51.6328 42.2062 52.0328C38.9062 54.0328 35.4062 54.4328 31.7062 53.4328C30.5062 53.1328 29.5063 52.4328 28.5063 51.9328C26.0063 50.6328 23.5063 50.6328 21.1063 52.0328C17.3063 54.2328 13.3062 54.6328 9.20623 52.9328C8.60623 52.7328 8.00628 52.3328 7.50628 52.0328C6.40628 51.3328 5.2063 51.0328 3.9063 50.9328C2.0063 50.8328 0.906279 49.7328 1.00628 48.1328C1.20628 46.9328 2.30628 45.6328 4.00628 45.7328Z" fill="black" stroke="black" stroke-width="2" stroke-miterlimit="10"/>
</svg>
